<?xml version="1.0" standalone="no"?><svg xmlns="http://www.w3.org/2000/svg" viewBox="0 0 1440 320"><path fill="#0099ff" fill-opacity="1" d="M0,32L24,64C48,96,96,160,144,170.7C192,181,240,139,288,112C336,85,384,75,432,64C480,53,528,43,576,48C624,53,672,75,720,117.3C768,160,816,224,864,213.3C912,203,960,117,1008,117.3C1056,117,1104,203,1152,202.7C1200,203,1248,117,1296,96C1344,75,1392,117,1416,138.7L1440,160L1440,320L1416,320C1392,320,1344,320,1296,320C1248,320,1200,320,1152,320C1104,320,1056,320,1008,320C960,320,912,320,864,320C816,320,768,320,720,320C672,320,624,320,576,320C528,320,480,320,432,320C384,320,336,320,288,320C240,320,192,320,144,320C96,320,48,320,24,320L0,320Z"></path></svg>